<svg xmlns="http://www.w3.org/2000/svg" viewBox="0 0 200 200" width="200" height="200">
  <defs>
    <linearGradient id="grad1" x1="0%" y1="0%" x2="100%" y2="100%">
      <stop offset="0%" style="stop-color:#3b82f6;stop-opacity:1" />
      <stop offset="100%" style="stop-color:#1d4ed8;stop-opacity:1" />
    </linearGradient>
    <linearGradient id="grad2" x1="0%" y1="0%" x2="100%" y2="100%">
      <stop offset="0%" style="stop-color:#10b981;stop-opacity:1" />
      <stop offset="100%" style="stop-color:#059669;stop-opacity:1" />
    </linearGradient>
  </defs>
  
  <!-- Background Circle -->
  <circle cx="100" cy="100" r="95" fill="url(#grad1)" stroke="#1e40af" stroke-width="2"/>
  
  <!-- Shield Icon -->
  <path d="M100 25 L75 35 L75 85 C75 105 85 120 100 125 C115 120 125 105 125 85 L125 35 Z" 
        fill="url(#grad2)" stroke="#065f46" stroke-width="2"/>
  
  <!-- Lock Icon -->
  <rect x="90" y="65" width="20" height="25" rx="2" fill="#fff" stroke="#1f2937" stroke-width="1"/>
  <path d="M95 65 L95 55 C95 50 97.5 47.5 100 47.5 C102.5 47.5 105 50 105 55 L105 65" 
        fill="none" stroke="#1f2937" stroke-width="2"/>
  <circle cx="100" cy="77" r="2" fill="#1f2937"/>
  
  <!-- Gear Icons -->
  <g transform="translate(130, 130)">
    <circle cx="0" cy="0" r="12" fill="#fbbf24" stroke="#d97706" stroke-width="1"/>
    <circle cx="0" cy="0" r="6" fill="#fff"/>
    <rect x="-2" y="-15" width="4" height="6" fill="#fbbf24"/>
    <rect x="-2" y="9" width="4" height="6" fill="#fbbf24"/>
    <rect x="-15" y="-2" width="6" height="4" fill="#fbbf24"/>
    <rect x="9" y="-2" width="6" height="4" fill="#fbbf24"/>
  </g>
  
  <g transform="translate(70, 130)">
    <circle cx="0" cy="0" r="10" fill="#ef4444" stroke="#dc2626" stroke-width="1"/>
    <circle cx="0" cy="0" r="5" fill="#fff"/>
    <rect x="-1.5" y="-12" width="3" height="5" fill="#ef4444"/>
    <rect x="-1.5" y="7" width="3" height="5" fill="#ef4444"/>
    <rect x="-12" y="-1.5" width="5" height="3" fill="#ef4444"/>
    <rect x="7" y="-1.5" width="5" height="3" fill="#ef4444"/>
  </g>
  
  <!-- Flow Lines -->
  <path d="M85 105 Q90 110 95 105 Q100 100 105 105 Q110 110 115 105" 
        stroke="#a855f7" stroke-width="3" fill="none"/>
  <path d="M85 115 Q90 120 95 115 Q100 110 105 115 Q110 120 115 115" 
        stroke="#a855f7" stroke-width="3" fill="none"/>
  
  <!-- Text -->
  <text x="100" y="180" text-anchor="middle" font-family="Arial, sans-serif" font-size="16" font-weight="bold" fill="#1f2937">SecureFlow</text>
  <text x="100" y="195" text-anchor="middle" font-family="Arial, sans-serif" font-size="12" fill="#6b7280">Automaton</text>
</svg>
